<?xml version="1.0" encoding="utf-8"?>
<!-- Generator: Adobe Illustrator 21.0.2, SVG Export Plug-In . SVG Version: 6.00 Build 0)  -->
<svg version="1.1" id="Layer_1" xmlns="http://www.w3.org/2000/svg" xmlns:xlink="http://www.w3.org/1999/xlink" x="0px" y="0px"
	 viewBox="0 0 500 87" style="enable-background:new 0 0 500 87;" xml:space="preserve">
<style type="text/css">
	.st0{fill:#2174A3;}
	.st1{fill:#FFFFFF;}
</style>
<path class="st0" d="M37.8,41.8h23.3c1.6,0,2.8-1.5,2.5-3.1C61.1,26,51,16,38.3,13.5c-1.6-0.3-3.1,0.9-3.1,2.5v23.3
	C35.3,40.7,36.4,41.8,37.8,41.8z"/>
<path class="st0" d="M35.3,50.7V74c0,1.6,1.5,2.8,3.1,2.5C51,74,61.1,64,63.6,51.2c0.3-1.6-0.9-3.1-2.5-3.1H37.8
	C36.4,48.2,35.3,49.3,35.3,50.7z"/>
<path class="st0" d="M28.9,16c0-1.6-1.5-2.8-3-2.5C11.1,16.4,0,29.4,0,45s11.1,28.6,25.9,31.5c1.6,0.3,3-0.9,3-2.5V16z"/>
<path class="st1" d="M76.7,31.9c1.6-3.5,4-6.2,7-8.1c3.1-1.9,6.6-2.9,10.8-2.9c3.6,0,6.7,0.7,9.5,2.2c2.8,1.5,5.1,3.5,6.8,6.2
	c1.8,2.7,2.9,5.8,3.5,9.3h-13.6c-0.6-1.5-1.5-2.6-2.6-3.5c-1.1-0.8-2.4-1.2-3.9-1.2c-2.2,0-3.9,0.9-5.1,2.7
	c-1.3,1.8-1.9,4.2-1.9,7.2c0,3,0.6,5.4,1.9,7.2c1.3,1.8,3,2.7,5.1,2.7c1.5,0,2.8-0.4,3.9-1.2c1.1-0.8,2-2,2.6-3.5h13.6
	c-0.6,3.6-1.7,6.7-3.5,9.3c-1.8,2.7-4,4.7-6.8,6.2c-2.8,1.5-6,2.2-9.5,2.2c-4.1,0-7.7-1-10.8-2.9c-3.1-1.9-5.4-4.6-7-8.1
	c-1.6-3.5-2.5-7.4-2.5-11.9C74.2,39.3,75,35.3,76.7,31.9z"/>
<path class="st1" d="M134.1,63.7c-3.2-2-5.8-4.7-7.7-8.2c-1.9-3.5-2.8-7.5-2.8-11.9c0-4.4,0.9-8.3,2.8-11.9c1.9-3.5,4.5-6.2,7.7-8.2
	c3.2-2,6.8-2.9,10.6-2.9c3.9,0,7.4,1,10.6,2.9c3.2,2,5.7,4.7,7.6,8.2c1.9,3.5,2.8,7.5,2.8,11.9c0,4.4-0.9,8.3-2.8,11.9
	c-1.9,3.5-4.4,6.3-7.6,8.2c-3.2,2-6.7,3-10.6,3C140.9,66.7,137.4,65.7,134.1,63.7z M150.7,50.9c1.4-1.8,2.1-4.2,2.1-7.3
	c0-3.1-0.7-5.5-2.1-7.3c-1.4-1.8-3.4-2.7-5.9-2.7c-2.6,0-4.6,0.9-6,2.7c-1.4,1.8-2.1,4.2-2.1,7.3c0,3,0.7,5.5,2.1,7.3
	c1.4,1.8,3.4,2.7,6,2.7C147.3,53.5,149.3,52.6,150.7,50.9z"/>
<path class="st1" d="M189.1,21.3v44.9h-12.9V21.3H189.1z"/>
<path class="st0" d="M189.1,0v13.5h-12.9V0H189.1z"/>
<path class="st0" d="M410.2,50.3V87h-12.9V50.3H410.2z"/>
<path class="st1" d="M240,66.2h-12.9l-13.6-22.6v22.6h-12.9V21.3h12.9l13.6,23v-23H240V66.2z"/>
<path class="st1" d="M255.5,62.9c-3.2-2.5-4.9-6.2-5.2-11.1H264c0.2,2.6,1.2,3.9,3.1,3.9c0.7,0,1.3-0.2,1.8-0.5
	c0.5-0.4,0.7-0.9,0.7-1.7c0-1.1-0.5-1.9-1.6-2.6c-1-0.7-2.7-1.4-4.9-2.3c-2.6-1-4.8-2-6.5-3c-1.7-1-3.2-2.4-4.4-4.2
	c-1.2-1.9-1.8-4.2-1.8-7.2c0-2.9,0.7-5.4,2.1-7.5c1.4-2.1,3.2-3.6,5.6-4.7c2.4-1.1,5-1.6,8-1.6c5,0,9,1.3,12,3.8
	c3,2.5,4.5,6.1,4.7,10.7h-13.8c0-1.3-0.3-2.2-0.9-2.7c-0.5-0.5-1.2-0.8-2-0.8c-0.5,0-1,0.2-1.3,0.6c-0.3,0.4-0.5,1-0.5,1.7
	c0,1,0.5,1.8,1.5,2.5c1,0.7,2.7,1.4,4.9,2.4c2.6,1.1,4.7,2.1,6.4,3c1.7,1,3.1,2.3,4.4,4.1c1.2,1.7,1.9,3.9,1.9,6.5
	c0,2.7-0.6,5.2-1.9,7.4c-1.2,2.2-3,3.9-5.4,5.1c-2.4,1.2-5.2,1.8-8.4,1.8C262.8,66.7,258.7,65.4,255.5,62.9z"/>
<path class="st1" d="M314.2,66.2l-7.7-16.1h-0.1v16.1h-12.9V21.3h19.1c3.3,0,6.2,0.6,8.5,1.9c2.4,1.3,4.1,3,5.3,5.3
	c1.2,2.2,1.8,4.7,1.8,7.5c0,3-0.8,5.7-2.3,8c-1.5,2.3-3.7,4-6.6,5l8.9,17.2H314.2z M306.5,40.7h5.1c1.2,0,2.2-0.3,2.8-0.9
	c0.6-0.6,0.9-1.6,0.9-2.9c0-1.2-0.3-2.1-1-2.8c-0.6-0.7-1.6-1-2.8-1h-5.1V40.7z"/>
<path class="st1" d="M364.5,59.4h-13.7l-2,6.8h-13.5l15-44.9h14.8l14.9,44.9h-13.6L364.5,59.4z M361.4,48.9l-3.7-12.5L354,48.9
	H361.4z"/>
<path class="st1" d="M421,21.3v11.2h-10.9V43h-12.9V32.5h-10.8V21.3H421z"/>
<path class="st1" d="M443.2,32.6v5.5h12.7v10.6h-12.7V55h14.5v11.2h-27.3V21.3h27.3v11.2H443.2z"/>
<path class="st1" d="M472.2,62.9c-3.2-2.5-4.9-6.2-5.2-11.1h13.7c0.2,2.6,1.2,3.9,3.1,3.9c0.7,0,1.3-0.2,1.8-0.5
	c0.5-0.4,0.7-0.9,0.7-1.7c0-1.1-0.5-1.9-1.6-2.6c-1-0.7-2.7-1.4-4.9-2.3c-2.6-1-4.8-2-6.5-3c-1.7-1-3.2-2.4-4.4-4.2
	c-1.2-1.9-1.8-4.2-1.8-7.2c0-2.9,0.7-5.4,2.1-7.5c1.4-2.1,3.2-3.6,5.6-4.7c2.4-1.1,5-1.6,8-1.6c5,0,9,1.3,12,3.8
	c3,2.5,4.5,6.1,4.7,10.7h-13.8c0-1.3-0.3-2.2-0.9-2.7c-0.5-0.5-1.2-0.8-2-0.8c-0.5,0-1,0.2-1.3,0.6c-0.3,0.4-0.5,1-0.5,1.7
	c0,1,0.5,1.8,1.5,2.5c1,0.7,2.7,1.4,4.9,2.4c2.6,1.1,4.7,2.1,6.4,3c1.7,1,3.1,2.3,4.4,4.1c1.2,1.7,1.9,3.9,1.9,6.5
	c0,2.7-0.6,5.2-1.9,7.4c-1.2,2.2-3,3.9-5.4,5.1c-2.4,1.2-5.2,1.8-8.4,1.8C479.5,66.7,475.4,65.4,472.2,62.9z"/>
</svg>
